<svg id="Слой_1" data-name="Слой 1" xmlns="http://www.w3.org/2000/svg" xmlns:xlink="http://www.w3.org/1999/xlink" viewBox="0 0 243.78 153.07"><defs><style>.cls-1,.cls-3{fill:none;}.cls-2{clip-path:url(#clip-path);}.cls-3{stroke:#f5c514;stroke-miterlimit:10;stroke-width:1.29px;}</style><clipPath id="clip-path"><rect class="cls-1" width="243.78" height="153.07" transform="translate(243.78 153.07) rotate(-180)"/></clipPath></defs><g class="cls-2"><g id="ornament"><g id="oq"><g id="op"><path class="cls-3" d="M394.48,93.16c38,21.76,37.95,67,22.6,93.8-20.68,36.09-53.26,42.94-81.51,26.75-16-9.17-24.37-17.86-35.46-34,0,0-89.67-130.46-124.27-181.07-4.31-6.31-10.57-11.14-20.54-16.85C139.91-27,118.78-19.33,109.42-3.9c-8.53,14.06-3.78,37.43,11.78,46.35,18.91,10.83,33,5.86,38.72-4.21C167,25.85,164.76,18,156.06,13c-6.06-3.48-10.36-2-12.77,2.15C137.2,25.79,153.21,31,153.21,31a11.25,11.25,0,0,1-17.37-.48,22.1,22.1,0,0,1-12,6.81,22.39,22.39,0,0,1,.3-13.54c-9.64-2.22-11.75-7.85-9.32-16A16.53,16.53,0,0,0,123,13.86C126.26.7,141.33-13.72,160.88-2.51s28,34,9.48,56.89c6.31-4.37,13.95-4.05,20.87-.9A40.9,40.9,0,0,0,183.64,62c6.9,0,13.74-1.5,23.87,4.54-4.82,3.46-11.25,5.55-12.2,13,23.94,1.2,42.8,27.39,32,60.29-6.45-18-17.07-31.11-30.65-38.89-44-25.22-58.41-17.23-89-34.76-12.8-7.33-22.85-21.84-24.77-40.26l.51.29c-7.25,7.3-14.66,10.39-22.24,10.26,5.7-22.9,22.2-51.46,37.06-63.37C110.35-43.43,131-48,139.94-47.68s37.88,7.5,54.15,31c17.8,25.75,103.18,148,130.1,186.27a67.29,67.29,0,0,0,21.68,20.2c22.53,12.92,42.22-3.22,48.94-14.94,8-14,5.53-34.4-7.8-42-8.45-4.84-16.17-3.17-20,3.45C358,152.13,372,158.9,382.3,160.6c-10.09,7.32-21.28,8.52-28.73,2.16-4,5.14-9.65,8.94-18,10.67-2.66-6.64-3.65-13.46.37-20.77-14.76-4.26-15.26-16.06-13.43-26.31,8,8.13,17.89,16.17,27.16,0,6.76-11.8,14.12-19.92,24.89-20.94-10-6.17-49.84-30.26-49.84-30.26C310,65.77,298.36,87,295.23,102.92c-14.58-15-18.11-30.78-2-53.29-5.75,4.4-14.75,7.46-25.26,1.43-14.22-8.15-23.36-28.72-23.68-39L394.49,93.16Z"/></g></g><g id="oh"><g id="oq-2" data-name="oq"><g id="op-2" data-name="op"><path class="cls-3" d="M390.15,100.73c38,21.75,77-1.15,92.35-27.93C503.18,36.72,492.62,5.14,464.38-11c-16-9.18-27.74-12-47.29-13.4,0,0-157.89-11.42-219-15.68-7.62-.53-14.95-3.5-24.92-9.21-15.39-8.82-19.41-30.95-10.83-46.82,7.82-14.48,30.39-22.19,46-13.27,18.9,10.83,21.71,25.47,15.94,35.53-7.1,12.39-15,14.41-23.72,9.43-6.06-3.48-7-7.91-4.6-12.12C202-87.2,214.55-76,214.55-76a11.25,11.25,0,0,0-9.2-14.75,22.06,22.06,0,0,0-.21-13.83,22.26,22.26,0,0,0-11.54,7.1c-6.79-7.2-12.71-6.18-18.52,0a16.49,16.49,0,0,1,9.4,4c-9.71,9.47-14.53,29.75,5,41,19.41,11.12,43.48,7,53.87-20.58-.57,7.65,3.56,14.08,9.78,18.46a40.81,40.81,0,0,1,3.5-10.85c3.52,5.94,5.66,12.61,16,18.3.56-5.91-.89-12.51,5-17.09,13.14,20,45.27,23.09,68.18-2.9-18.81,3.54-35.47,1-49.05-6.79-44-25.21-44.39-41.68-75-59.22-12.8-7.33-30.39-8.67-47.26-1l.51.3c2.63-10,1.55-17.9-2.4-24.38-16.87,16.5-33.17,45.18-35.93,64-8.08,18.84-1.59,38.94,3.21,46.51s25.62,28.9,54.15,31C225.31-14.32,373.94-2.45,420.58,1.43A67.39,67.39,0,0,1,449,9.91C471.5,22.83,467.54,48,460.82,59.7c-8,14-26.88,22.16-40.22,14.52-8.45-4.84-10.91-12.35-7.11-19,9.08-15.84,22-7.16,28.68.87,1.22-12.4-3.41-22.67-12.65-25.87,2.43-6,2.83-12.86.11-20.93-7.08,1.07-13.46,3.66-17.74,10.82-11.13-10.57-21.57-5-29.49,1.72,11.05,2.76,23,7.26,13.72,23.44-6.76,11.79-10,22.25-5.48,32.06-10.4-5.54-51.31-27.71-51.31-27.71-15.55-8-3.1-28.74,9.06-39.49-20.35-5-35.71-.07-47,25.19.9-7.19-1-16.5-11.53-22.52-14.22-8.15-36.59-5.64-45.58-.73l145.88,88.63Z"/></g></g></g></g></g></svg>