<svg id="Слой_1" data-name="Слой 1" xmlns="http://www.w3.org/2000/svg" viewBox="0 0 188 150"><defs><style>.cls-1{fill:#1a94c1;}.cls-2{fill:#eb1318;}.cls-3{fill:#1492a3;}</style></defs><path class="cls-1" d="M89.81,146c5.63-38-10-31.47,0-62.94C57.1,120.94,84,124.9,89.81,146Z"/><path class="cls-2" d="M91.88,148.7c44.89-45.15,9.4-52,.36-69.08C98,103.16,107.49,106.42,91.88,148.7Z"/><path class="cls-3" d="M188,61.12V150H126.9c10.72-28.93-12.32-38.15,13.94-71.44-11.13-3.25-21.3-2.7-30.48,1.49,0-14.35-7.83-26.5-16.36-29.29C85.47,53.55,77.64,65.7,77.64,80.05c-9.18-4.19-19.35-4.74-30.48-1.49C73.42,111.85,50.38,121.07,61.1,150H0V61.12H30.59C32.47,17,77.59,21.79,94,0c16.41,21.79,61.53,17,63.41,61.12Z"/></svg>